<svg xmlns="http://www.w3.org/2000/svg" viewBox="0 0 256 256">
  <defs>
    <linearGradient id="background" x1="28" y1="20" x2="226" y2="238" gradientUnits="userSpaceOnUse">
      <stop stop-color="#202a3a"/>
      <stop offset="1" stop-color="#0a0f18"/>
    </linearGradient>
    <linearGradient id="rim" x1="61" y1="55" x2="197" y2="207" gradientUnits="userSpaceOnUse">
      <stop stop-color="#f3f7fb"/>
      <stop offset=".45" stop-color="#aab7c7"/>
      <stop offset="1" stop-color="#657286"/>
    </linearGradient>
    <linearGradient id="hub" x1="104" y1="105" x2="153" y2="157" gradientUnits="userSpaceOnUse">
      <stop stop-color="#d7e2ed"/>
      <stop offset="1" stop-color="#728096"/>
    </linearGradient>
    <linearGradient id="spoke" x1="128" y1="115" x2="128" y2="194" gradientUnits="userSpaceOnUse">
      <stop stop-color="#b7c4d4"/>
      <stop offset="1" stop-color="#5b687b"/>
    </linearGradient>
    <filter id="shadow" x="-20%" y="-20%" width="140%" height="150%">
      <feDropShadow dx="0" dy="6" stdDeviation="7" flood-color="#000" flood-opacity=".42"/>
    </filter>
    <filter id="ledGlow" x="-80%" y="-160%" width="260%" height="420%">
      <feGaussianBlur stdDeviation="3" result="blur"/>
      <feMerge>
        <feMergeNode in="blur"/>
        <feMergeNode in="SourceGraphic"/>
      </feMerge>
    </filter>
  </defs>

  <rect x="12" y="12" width="232" height="232" rx="53" fill="url(#background)"/>
  <path d="M46 74A97 97 0 0 1 210 74" fill="none" stroke="#344257" stroke-width="2" opacity=".8"/>

  <g filter="url(#ledGlow)">
    <rect x="72" y="47" width="19" height="8" rx="4" fill="#39d98a"/>
    <rect x="95" y="42" width="19" height="8" rx="4" fill="#72df55"/>
    <rect x="118" y="40" width="20" height="8" rx="4" fill="#ffc542"/>
    <rect x="142" y="42" width="19" height="8" rx="4" fill="#ff914d"/>
    <rect x="165" y="47" width="19" height="8" rx="4" fill="#ff5c66"/>
  </g>

  <g filter="url(#shadow)">
    <circle cx="128" cy="134" r="77" fill="none" stroke="#111925" stroke-width="25"/>
    <circle cx="128" cy="134" r="77" fill="none" stroke="url(#rim)" stroke-width="15"/>
    <path d="M77 105L111 124M179 105L145 124M128 152V188" fill="none" stroke="#111925" stroke-width="24" stroke-linecap="round" stroke-linejoin="round"/>
    <path d="M77 105L111 124M179 105L145 124M128 152V188" fill="none" stroke="url(#spoke)" stroke-width="14" stroke-linecap="round" stroke-linejoin="round"/>
    <circle cx="128" cy="134" r="32" fill="#111925"/>
    <circle cx="128" cy="134" r="24" fill="url(#hub)"/>
    <circle cx="128" cy="134" r="12" fill="#172131"/>
    <circle cx="128" cy="134" r="7" fill="#0b111c"/>
  </g>

  <path d="M74 86A66 66 0 0 1 182 86" fill="none" stroke="#fff" stroke-width="3" stroke-linecap="round" opacity=".36"/>
  <path d="M71 178A77 77 0 0 0 185 178" fill="none" stroke="#4b5b70" stroke-width="3" stroke-linecap="round" opacity=".7"/>
</svg>
